<mxfile host="65bd71144e">
    <diagram id="x4BcxC87ELzKGajdSbIB" name="Page-1">
        <mxGraphModel dx="1573" dy="1192" grid="1" gridSize="10" guides="1" tooltips="1" connect="1" arrows="1" fold="1" page="0" pageScale="1" pageWidth="850" pageHeight="1100" math="0" shadow="0">
            <root>
                <mxCell id="0"/>
                <mxCell id="1" parent="0"/>
                <mxCell id="2" style="edgeStyle=none;html=1;exitX=0.044;exitY=0.03;exitDx=0;exitDy=0;entryX=0.611;entryY=1.05;entryDx=0;entryDy=0;entryPerimeter=0;exitPerimeter=0;strokeColor=#e37304;" parent="1" source="33" target="7" edge="1">
                    <mxGeometry relative="1" as="geometry">
                        <mxPoint x="243.4314575050762" y="493.18019484660545" as="sourcePoint"/>
                    </mxGeometry>
                </mxCell>
                <mxCell id="3" style="edgeStyle=none;html=1;exitX=0.25;exitY=0;exitDx=0;exitDy=0;entryX=0.5;entryY=1;entryDx=0;entryDy=0;strokeColor=#e37304;" parent="1" source="33" target="13" edge="1">
                    <mxGeometry relative="1" as="geometry">
                        <mxPoint x="300" y="480" as="sourcePoint"/>
                    </mxGeometry>
                </mxCell>
                <mxCell id="4" value="MOVIE API&lt;br&gt;SERVICE" style="ellipse;whiteSpace=wrap;html=1;fillColor=default;strokeColor=#FFFFFF;" parent="1" vertex="1">
                    <mxGeometry x="-70" y="160" width="120" height="80" as="geometry"/>
                </mxCell>
                <mxCell id="6" style="edgeStyle=none;html=1;exitX=0;exitY=0;exitDx=0;exitDy=0;entryX=0.567;entryY=0.988;entryDx=0;entryDy=0;entryPerimeter=0;fillColor=#e3c800;strokeColor=#B09500;" parent="1" source="7" target="4" edge="1">
                    <mxGeometry relative="1" as="geometry">
                        <mxPoint x="80" y="240" as="targetPoint"/>
                    </mxGeometry>
                </mxCell>
                <mxCell id="7" value="ADD CONTROLLER" style="ellipse;whiteSpace=wrap;html=1;strokeColor=#FF8000;" parent="1" vertex="1">
                    <mxGeometry x="80" y="370" width="90" height="60" as="geometry"/>
                </mxCell>
                <mxCell id="8" value="TMDB API&lt;br&gt;SERVICE" style="ellipse;whiteSpace=wrap;html=1;fillColor=default;strokeColor=#9d8504;" parent="1" vertex="1">
                    <mxGeometry width="120" height="80" as="geometry"/>
                </mxCell>
                <mxCell id="9" value="&lt;span style=&quot;color: rgb(240, 240, 240); font-family: Helvetica; font-size: 12px; font-style: normal; font-variant-ligatures: normal; font-variant-caps: normal; font-weight: 400; letter-spacing: normal; orphans: 2; text-align: center; text-indent: 0px; text-transform: none; widows: 2; word-spacing: 0px; -webkit-text-stroke-width: 0px; background-color: rgb(42, 37, 47); text-decoration-thickness: initial; text-decoration-style: initial; text-decoration-color: initial; float: none; display: inline !important;&quot;&gt;OMDB API&lt;/span&gt;&lt;br style=&quot;border-color: rgb(0, 0, 0); color: rgb(240, 240, 240); font-family: Helvetica; font-size: 12px; font-style: normal; font-variant-ligatures: normal; font-variant-caps: normal; font-weight: 400; letter-spacing: normal; orphans: 2; text-align: center; text-indent: 0px; text-transform: none; widows: 2; word-spacing: 0px; -webkit-text-stroke-width: 0px; background-color: rgb(42, 37, 47); text-decoration-thickness: initial; text-decoration-style: initial; text-decoration-color: initial;&quot;&gt;&lt;span style=&quot;color: rgb(240, 240, 240); font-family: Helvetica; font-size: 12px; font-style: normal; font-variant-ligatures: normal; font-variant-caps: normal; font-weight: 400; letter-spacing: normal; orphans: 2; text-align: center; text-indent: 0px; text-transform: none; widows: 2; word-spacing: 0px; -webkit-text-stroke-width: 0px; background-color: rgb(42, 37, 47); text-decoration-thickness: initial; text-decoration-style: initial; text-decoration-color: initial; float: none; display: inline !important;&quot;&gt;SERVICE&lt;/span&gt;" style="ellipse;whiteSpace=wrap;html=1;fillColor=default;strokeColor=#9d8504;" parent="1" vertex="1">
                    <mxGeometry x="-160" width="120" height="80" as="geometry"/>
                </mxCell>
                <mxCell id="10" value="" style="endArrow=classic;html=1;entryX=0.425;entryY=1;entryDx=0;entryDy=0;entryPerimeter=0;exitX=0.717;exitY=0.013;exitDx=0;exitDy=0;exitPerimeter=0;fillColor=#e3c800;strokeColor=#B09500;" parent="1" source="4" target="8" edge="1">
                    <mxGeometry width="50" height="50" relative="1" as="geometry">
                        <mxPoint x="130" y="150" as="sourcePoint"/>
                        <mxPoint x="180" y="100" as="targetPoint"/>
                    </mxGeometry>
                </mxCell>
                <mxCell id="11" value="" style="endArrow=classic;html=1;entryX=0.608;entryY=1;entryDx=0;entryDy=0;entryPerimeter=0;fillColor=#e3c800;strokeColor=#B09500;" parent="1" source="4" target="9" edge="1">
                    <mxGeometry width="50" height="50" relative="1" as="geometry">
                        <mxPoint x="120" y="150" as="sourcePoint"/>
                        <mxPoint x="60" y="100" as="targetPoint"/>
                    </mxGeometry>
                </mxCell>
                <mxCell id="12" style="edgeStyle=none;html=1;exitX=0;exitY=0;exitDx=0;exitDy=0;entryX=0.5;entryY=1;entryDx=0;entryDy=0;fillColor=#e3c800;strokeColor=#B09500;" parent="1" source="13" target="21" edge="1">
                    <mxGeometry relative="1" as="geometry"/>
                </mxCell>
                <mxCell id="47" style="edgeStyle=none;html=1;entryX=-0.01;entryY=0.67;entryDx=0;entryDy=0;entryPerimeter=0;fillColor=#60a917;strokeColor=#2D7600;exitX=0.744;exitY=0.067;exitDx=0;exitDy=0;exitPerimeter=0;" edge="1" parent="1" source="13" target="24">
                    <mxGeometry relative="1" as="geometry">
                        <mxPoint x="260" y="390" as="sourcePoint"/>
                    </mxGeometry>
                </mxCell>
                <mxCell id="48" style="edgeStyle=none;html=1;entryX=0.75;entryY=1;entryDx=0;entryDy=0;fillColor=#60a917;strokeColor=#2D7600;exitX=0.733;exitY=0.05;exitDx=0;exitDy=0;exitPerimeter=0;" edge="1" parent="1" source="13" target="22">
                    <mxGeometry relative="1" as="geometry">
                        <mxPoint x="279" y="393" as="sourcePoint"/>
                    </mxGeometry>
                </mxCell>
                <mxCell id="13" value="UPDATE CONTROLLER" style="ellipse;whiteSpace=wrap;html=1;strokeColor=#FF8000;" parent="1" vertex="1">
                    <mxGeometry x="195" y="380" width="90" height="60" as="geometry"/>
                </mxCell>
                <mxCell id="14" style="edgeStyle=none;html=1;exitX=0;exitY=0;exitDx=0;exitDy=0;entryX=1;entryY=1;entryDx=0;entryDy=0;fillColor=#e3c800;strokeColor=#B09500;" parent="1" source="16" target="21" edge="1">
                    <mxGeometry relative="1" as="geometry"/>
                </mxCell>
                <mxCell id="15" style="edgeStyle=none;html=1;entryX=0.5;entryY=1;entryDx=0;entryDy=0;exitX=0.75;exitY=0;exitDx=0;exitDy=0;strokeColor=#e37304;" parent="1" source="33" target="16" edge="1">
                    <mxGeometry relative="1" as="geometry">
                        <mxPoint x="360" y="450" as="sourcePoint"/>
                    </mxGeometry>
                </mxCell>
                <mxCell id="46" style="edgeStyle=none;html=1;exitX=1;exitY=0;exitDx=0;exitDy=0;entryX=0;entryY=1;entryDx=0;entryDy=0;fillColor=#60a917;strokeColor=#2D7600;" edge="1" parent="1" source="16" target="24">
                    <mxGeometry relative="1" as="geometry"/>
                </mxCell>
                <mxCell id="16" value="DELETE CONTROLLER" style="ellipse;whiteSpace=wrap;html=1;strokeColor=#FF8000;" parent="1" vertex="1">
                    <mxGeometry x="310" y="380" width="90" height="60" as="geometry"/>
                </mxCell>
                <mxCell id="17" style="edgeStyle=none;html=1;entryX=0.5;entryY=1;entryDx=0;entryDy=0;exitX=0.961;exitY=0;exitDx=0;exitDy=0;exitPerimeter=0;strokeColor=#e37304;" parent="1" source="33" target="18" edge="1">
                    <mxGeometry relative="1" as="geometry">
                        <mxPoint x="440" y="490" as="sourcePoint"/>
                    </mxGeometry>
                </mxCell>
                <mxCell id="50" style="edgeStyle=none;html=1;exitX=1;exitY=0;exitDx=0;exitDy=0;entryX=0.5;entryY=1;entryDx=0;entryDy=0;fillColor=#60a917;strokeColor=#2D7600;" edge="1" parent="1" source="18" target="24">
                    <mxGeometry relative="1" as="geometry"/>
                </mxCell>
                <mxCell id="18" value="DISPLAY CONTROLLER" style="ellipse;whiteSpace=wrap;html=1;strokeColor=#FF8000;" parent="1" vertex="1">
                    <mxGeometry x="430" y="370" width="90" height="60" as="geometry"/>
                </mxCell>
                <mxCell id="19" value="" style="endArrow=classic;html=1;entryX=0;entryY=1;entryDx=0;entryDy=0;exitX=0.5;exitY=0;exitDx=0;exitDy=0;fillColor=#e3c800;strokeColor=#B09500;" parent="1" source="7" target="21" edge="1">
                    <mxGeometry width="50" height="50" relative="1" as="geometry">
                        <mxPoint x="180" y="300" as="sourcePoint"/>
                        <mxPoint x="230" y="250" as="targetPoint"/>
                    </mxGeometry>
                </mxCell>
                <mxCell id="20" value="UI_SERVICE" style="ellipse;whiteSpace=wrap;html=1;fillColor=default;strokeColor=#9d8504;" parent="1" vertex="1">
                    <mxGeometry x="310" width="120" height="80" as="geometry"/>
                </mxCell>
                <mxCell id="21" value="UTIL&lt;br&gt;SERVICE" style="ellipse;whiteSpace=wrap;html=1;fillColor=default;strokeColor=#9d8504;" parent="1" vertex="1">
                    <mxGeometry x="115" y="115" width="80" height="70" as="geometry"/>
                </mxCell>
                <mxCell id="22" value="ADD&lt;br&gt;UPDATE&lt;br&gt;DELETE&lt;br&gt;GET" style="whiteSpace=wrap;html=1;aspect=fixed;strokeColor=#2d7600;" parent="1" vertex="1">
                    <mxGeometry x="680" y="170" width="100" height="100" as="geometry"/>
                </mxCell>
                <mxCell id="23" value="STATUS DB" style="whiteSpace=wrap;html=1;aspect=fixed;strokeColor=#0000FF;" parent="1" vertex="1">
                    <mxGeometry x="680" y="-160" width="100" height="100" as="geometry"/>
                </mxCell>
                <mxCell id="24" value="ADD&lt;br&gt;UPDATE&lt;br&gt;DELETE&lt;br&gt;FIND (GET)" style="whiteSpace=wrap;html=1;aspect=fixed;strokeColor=#2d7600;" parent="1" vertex="1">
                    <mxGeometry x="570" y="170" width="100" height="100" as="geometry"/>
                </mxCell>
                <mxCell id="25" value="STATUS MODEL" style="text;html=1;align=center;verticalAlign=middle;resizable=0;points=[];autosize=1;strokeColor=none;fillColor=none;" parent="1" vertex="1">
                    <mxGeometry x="670" y="140" width="120" height="30" as="geometry"/>
                </mxCell>
                <mxCell id="26" value="MOVIES MODEL" style="text;html=1;align=center;verticalAlign=middle;resizable=0;points=[];autosize=1;strokeColor=none;fillColor=none;" parent="1" vertex="1">
                    <mxGeometry x="560" y="140" width="120" height="30" as="geometry"/>
                </mxCell>
                <mxCell id="27" value="" style="edgeStyle=none;orthogonalLoop=1;jettySize=auto;html=1;entryX=0;entryY=0.25;entryDx=0;entryDy=0;exitX=1;exitY=0;exitDx=0;exitDy=0;fillColor=#60a917;strokeColor=#2D7600;" parent="1" source="7" target="24" edge="1">
                    <mxGeometry width="100" relative="1" as="geometry">
                        <mxPoint x="370" y="310" as="sourcePoint"/>
                        <mxPoint x="470" y="310" as="targetPoint"/>
                        <Array as="points"/>
                    </mxGeometry>
                </mxCell>
                <mxCell id="28" value="" style="edgeStyle=none;orthogonalLoop=1;jettySize=auto;html=1;exitX=0.5;exitY=0;exitDx=0;exitDy=0;fillColor=#e3c800;strokeColor=#B09500;entryX=1;entryY=1;entryDx=0;entryDy=0;" parent="1" source="18" target="20" edge="1">
                    <mxGeometry width="100" relative="1" as="geometry">
                        <mxPoint x="450" y="370" as="sourcePoint"/>
                        <mxPoint x="480" y="320" as="targetPoint"/>
                        <Array as="points"/>
                    </mxGeometry>
                </mxCell>
                <mxCell id="30" value="" style="edgeStyle=none;orthogonalLoop=1;jettySize=auto;html=1;fillColor=#e3c800;strokeColor=#B09500;exitX=0.5;exitY=0;exitDx=0;exitDy=0;" parent="1" source="13" target="20" edge="1">
                    <mxGeometry width="100" relative="1" as="geometry">
                        <mxPoint x="240" y="380" as="sourcePoint"/>
                        <mxPoint x="330" y="260" as="targetPoint"/>
                        <Array as="points"/>
                    </mxGeometry>
                </mxCell>
                <mxCell id="31" value="" style="edgeStyle=none;orthogonalLoop=1;jettySize=auto;html=1;exitX=0.5;exitY=0;exitDx=0;exitDy=0;fillColor=#e3c800;strokeColor=#B09500;entryX=0.625;entryY=0.975;entryDx=0;entryDy=0;entryPerimeter=0;" parent="1" source="16" target="20" edge="1">
                    <mxGeometry width="100" relative="1" as="geometry">
                        <mxPoint x="335" y="370" as="sourcePoint"/>
                        <mxPoint x="380" y="100" as="targetPoint"/>
                        <Array as="points"/>
                    </mxGeometry>
                </mxCell>
                <mxCell id="32" style="edgeStyle=none;html=1;exitX=0.822;exitY=0.05;exitDx=0;exitDy=0;exitPerimeter=0;fillColor=#e3c800;strokeColor=#B09500;entryX=0;entryY=1;entryDx=0;entryDy=0;" parent="1" source="7" target="20" edge="1">
                    <mxGeometry relative="1" as="geometry">
                        <mxPoint x="174.98000000000002" y="370" as="sourcePoint"/>
                        <mxPoint x="325.43649631047856" y="146.49434833871783" as="targetPoint"/>
                    </mxGeometry>
                </mxCell>
                <mxCell id="33" value="&lt;font style=&quot;font-size: 19px;&quot;&gt;CLI UI (MAIN)&lt;/font&gt;" style="rounded=1;whiteSpace=wrap;html=1;strokeColor=#990000;" parent="1" vertex="1">
                    <mxGeometry x="200" y="490" width="180" height="100" as="geometry"/>
                </mxCell>
                <mxCell id="35" value="" style="edgeStyle=none;orthogonalLoop=1;jettySize=auto;html=1;fontSize=19;exitX=0.558;exitY=-0.067;exitDx=0;exitDy=0;exitPerimeter=0;fillColor=#e3c800;strokeColor=#B09500;" parent="1" source="26" target="5" edge="1">
                    <mxGeometry width="100" relative="1" as="geometry">
                        <mxPoint x="520" y="110" as="sourcePoint"/>
                        <mxPoint x="620" y="110" as="targetPoint"/>
                        <Array as="points"/>
                    </mxGeometry>
                </mxCell>
                <mxCell id="36" value="MOVIES DB" style="whiteSpace=wrap;html=1;aspect=fixed;strokeColor=#0000FF;" parent="1" vertex="1">
                    <mxGeometry x="570" y="-160" width="100" height="100" as="geometry"/>
                </mxCell>
                <mxCell id="39" value="" style="edgeStyle=none;orthogonalLoop=1;jettySize=auto;html=1;entryX=0.15;entryY=1;entryDx=0;entryDy=0;exitX=1;exitY=0;exitDx=0;exitDy=0;fillColor=#60a917;strokeColor=#2D7600;entryPerimeter=0;" parent="1" source="7" target="22" edge="1">
                    <mxGeometry width="100" relative="1" as="geometry">
                        <mxPoint x="196.81980515339455" y="388.78679656440363" as="sourcePoint"/>
                        <mxPoint x="630" y="280" as="targetPoint"/>
                        <Array as="points"/>
                    </mxGeometry>
                </mxCell>
                <mxCell id="40" value="ADD CONTROLLER" style="ellipse;whiteSpace=wrap;html=1;strokeColor=#FF8000;" parent="1" vertex="1">
                    <mxGeometry x="80" y="370" width="90" height="60" as="geometry"/>
                </mxCell>
                <mxCell id="41" value="ADD CONTROLLER" style="ellipse;whiteSpace=wrap;html=1;strokeColor=#FF8000;" parent="1" vertex="1">
                    <mxGeometry x="80" y="370" width="90" height="60" as="geometry"/>
                </mxCell>
                <mxCell id="5" value="MYSQL&lt;br&gt;SERVICE" style="ellipse;whiteSpace=wrap;html=1;fillColor=default;strokeColor=#9d8504;" parent="1" vertex="1">
                    <mxGeometry x="620" width="120" height="80" as="geometry"/>
                </mxCell>
                <mxCell id="43" value="" style="edgeStyle=none;orthogonalLoop=1;jettySize=auto;html=1;fontSize=19;exitX=0.542;exitY=0;exitDx=0;exitDy=0;exitPerimeter=0;fillColor=#e3c800;strokeColor=#B09500;entryX=0.692;entryY=0.975;entryDx=0;entryDy=0;entryPerimeter=0;" edge="1" parent="1" source="25" target="5">
                    <mxGeometry width="100" relative="1" as="geometry">
                        <mxPoint x="636.96" y="147.99" as="sourcePoint"/>
                        <mxPoint x="662.9950984796665" y="88.35989412726394" as="targetPoint"/>
                        <Array as="points"/>
                    </mxGeometry>
                </mxCell>
                <mxCell id="44" value="" style="edgeStyle=none;orthogonalLoop=1;jettySize=auto;html=1;fontSize=19;exitX=0.25;exitY=0.038;exitDx=0;exitDy=0;fillColor=#e3c800;strokeColor=#B09500;exitPerimeter=0;" edge="1" parent="1" source="5">
                    <mxGeometry width="100" relative="1" as="geometry">
                        <mxPoint x="587.5" y="0.4099999999999966" as="sourcePoint"/>
                        <mxPoint x="620.0043089373153" y="-59.99581069659607" as="targetPoint"/>
                        <Array as="points"/>
                    </mxGeometry>
                </mxCell>
                <mxCell id="45" value="" style="edgeStyle=none;orthogonalLoop=1;jettySize=auto;html=1;fontSize=19;exitX=0.742;exitY=0.05;exitDx=0;exitDy=0;exitPerimeter=0;fillColor=#e3c800;strokeColor=#B09500;" edge="1" parent="1" source="5" target="23">
                    <mxGeometry width="100" relative="1" as="geometry">
                        <mxPoint x="700" y="0.4099999999999966" as="sourcePoint"/>
                        <mxPoint x="732.5043089373153" y="-59.99581069659607" as="targetPoint"/>
                        <Array as="points"/>
                    </mxGeometry>
                </mxCell>
            </root>
        </mxGraphModel>
    </diagram>
</mxfile>